<?xml version="1.0" encoding="utf-8"?>
<!-- Generator: Adobe Illustrator 23.0.1, SVG Export Plug-In . SVG Version: 6.00 Build 0)  -->
<svg version="1.1" id="Layer_1" xmlns="http://www.w3.org/2000/svg" xmlns:xlink="http://www.w3.org/1999/xlink" x="0px" y="0px"
	 width="600px" height="600px" viewBox="0 0 600 600" enable-background="new 0 0 600 600" xml:space="preserve">
<polygon fill="none" stroke="#FFFFFF" stroke-width="6" stroke-miterlimit="10" stroke-opacity="0.8" points="163.93,535.04 
	27,297.86 163.93,60.69 437.8,60.69 574.73,297.86 437.8,535.04 "/>
<polygon fill="none" stroke="#FFFFFF" stroke-width="6" stroke-miterlimit="10" points="504.49,415.42 300.87,532.99 97.24,415.42 
	97.24,180.3 300.87,62.73 504.49,180.3 "/>
<line fill="none" stroke="#FFFFFF" stroke-width="6" stroke-miterlimit="10" x1="97.24" y1="180.3" x2="163.93" y2="535.04"/>
<line fill="none" stroke="#FFFFFF" stroke-width="6" stroke-miterlimit="10" x1="27" y1="297.86" x2="300.87" y2="532.99"/>
<line fill="none" stroke="#FFFFFF" stroke-width="6" stroke-miterlimit="10" x1="504.49" y1="415.42" x2="163.93" y2="535.04"/>
<line fill="none" stroke="#FFFFFF" stroke-width="6" stroke-miterlimit="10" x1="574.73" y1="297.86" x2="300.87" y2="532.99"/>
<line fill="none" stroke="#FFFFFF" stroke-width="6" stroke-miterlimit="10" x1="504.49" y1="180.3" x2="437.8" y2="535.04"/>
<line fill="none" stroke="#FFFFFF" stroke-width="6" stroke-miterlimit="10" x1="300.87" y1="62.73" x2="574.73" y2="297.86"/>
<line fill="none" stroke="#FFFFFF" stroke-width="6" stroke-miterlimit="10" x1="97.24" y1="180.3" x2="437.8" y2="60.69"/>
<line fill="none" stroke="#FFFFFF" stroke-width="6" stroke-miterlimit="10" x1="300.87" y1="62.73" x2="27" y2="297.86"/>
<line fill="none" stroke="#FFFFFF" stroke-width="6" stroke-miterlimit="10" x1="163.93" y1="60.69" x2="504.49" y2="180.3"/>
<line fill="none" stroke="#FFFFFF" stroke-width="6" stroke-miterlimit="10" x1="97.24" y1="415.42" x2="163.93" y2="60.69"/>
<line fill="none" stroke="#FFFFFF" stroke-width="6" stroke-miterlimit="10" x1="437.8" y1="535.04" x2="97.24" y2="415.42"/>
<g>
	<g>
		<path fill="#FFFFFF" d="M204.34,273.23c0,10.56-3.1,21.12-9.53,30.19c-3.79,4.94-8.84,9.64-14.69,12.28
			c-1.26,0.57-2.64,1.15-4.13,1.61v-11.14c-2.87,1.49-6.32,2.41-10.33,2.52v-4.13v-78.98c3.56,0,6.77,0.57,10.33,1.61
			c7.35,2.18,13.66,7.12,18.83,13.89C201.24,249.92,204.34,262.67,204.34,273.23z M200.21,273.23c0-9.76-2.75-21.47-8.72-29.62
			c-3.79-5.17-9.07-9.64-15.5-12.05c-1.95-0.8-4.02-1.26-6.2-1.61v74.05c2.18-0.34,4.25-1.26,6.2-2.52v-63.14
			c0.46,0.34,3.21,1.72,4.13,2.53c2.52,1.95,4.59,4.02,6.31,6.43c5.05,6.89,7.58,17.22,7.58,25.94c0,8.73-2.53,17.11-7.58,23.99
			c-1.72,2.41-3.79,4.48-6.31,6.43V311c1.95,0,9.3-7.46,11.36-10.1C197.34,292.74,200.21,282.99,200.21,273.23z M180.12,298.25
			c1.26-1.03,2.07-2.18,2.99-3.44c4.48-5.97,6.77-13.78,6.77-21.58c0-7.81-2.3-17.45-6.77-23.53c-0.92-1.26-1.72-2.41-2.99-3.44
			V298.25z"/>
		<path fill="#FFFFFF" d="M243.71,229.6v35.01h6.09v-28.93h25.83v4.13h-21.7v24.8h21.7v4.02h-31.92v34.44h6.09v-28.36h25.83v4.02
			h-21.7v24.34h21.7v4.13h-21.7v6.08h21.7v4.02h-35.93v-4.02v-87.71h35.93v4.02H243.71z M249.79,313.29v-6.08h-6.09v6.08H249.79z"/>
		<path fill="#FFFFFF" d="M313.96,225.58h3.9h0.34l16.3,31.46l15.96-31.46h0.69h3.67l-20.32,40.07L313.96,225.58z M355.29,237.75
			v8.73v70.83h-4.13V254.4l-5.85,11.82v51.09h-4.36V273.8l-6.43,13.09l-6.54-12.4v42.82h-3.9V266.8l-6.2-11.71v62.22h-3.9v-70.14
			v-8.72l20.55,40.07L355.29,237.75z"/>
		<path fill="#FFFFFF" d="M435.76,246.59v50.28c0,5.85-2.52,11.6-6.77,15.38c-3.67,3.22-8.72,5.05-14.12,5.05
			c-5.05,0-9.76-1.49-13.78-5.05c-4.25-3.79-6.77-9.53-6.77-15.38v-50.28c0-5.85,2.52-11.59,6.77-15.38
			c3.56-3.67,8.27-5.51,13.78-5.51c4.94,0,10.45,1.49,14.12,5.51C433.23,235,435.76,240.74,435.76,246.59z M431.97,246.59
			c0-4.71-1.95-9.3-5.51-12.4c-2.87-2.76-7.12-4.59-11.6-4.59c-4.25,0-7.92,1.49-11.25,4.59c-3.56,3.1-5.51,7.69-5.51,12.4v50.28
			c0,4.71,1.95,9.3,5.51,12.4c2.87,2.76,6.54,4.13,11.25,4.13c4.02,0,8.38-1.03,11.6-4.13c3.56-3.1,5.51-7.69,5.51-12.4V246.59z
			 M426.23,246.59v50.28c0,3.1-1.26,5.85-4.02,8.04c-1.95,1.84-4.71,2.64-7.35,2.64c-2.76,0-5.28-0.8-7.46-2.64
			c-2.3-2.18-3.56-4.94-3.56-8.04v-50.28c0-3.1,1.26-5.85,3.56-8.04c2.18-1.84,4.71-2.64,7.46-2.64c2.64,0,5.4,0.8,7.35,2.64
			C424.96,240.74,426.23,243.49,426.23,246.59z M421.98,246.59c0-2.07-0.8-3.79-2.3-5.05c-1.38-1.26-3.1-1.72-4.82-1.72
			c-1.84,0-3.56,0.46-4.94,1.72c-1.49,1.26-2.3,2.98-2.3,5.05v50.28c0,2.07,0.8,3.79,2.3,5.05c1.38,1.26,3.1,1.72,4.94,1.72
			c1.72,0,3.44-0.46,4.82-1.72c1.49-1.26,2.3-2.99,2.3-5.05V246.59z"/>
	</g>
</g>
<g>
	<path fill="#FFFFFF" d="M184.79,347.3v-8.47l-3.94-11.56h3.04l2.31,7.96h0.06l2.31-7.96h3.04l-3.94,11.56v8.47H184.79z"/>
	<path fill="#FFFFFF" d="M192.87,331.99c0-0.81,0.14-1.52,0.42-2.14c0.28-0.62,0.66-1.13,1.13-1.55c0.45-0.39,0.96-0.69,1.53-0.9
		c0.57-0.21,1.15-0.31,1.73-0.31c0.58,0,1.16,0.1,1.73,0.31c0.57,0.21,1.09,0.51,1.56,0.9c0.45,0.41,0.82,0.93,1.1,1.55
		c0.28,0.62,0.42,1.33,0.42,2.14v10.58c0,0.85-0.14,1.57-0.42,2.17c-0.28,0.6-0.65,1.1-1.1,1.49c-0.47,0.41-0.99,0.72-1.56,0.93
		c-0.57,0.21-1.15,0.31-1.73,0.31c-0.58,0-1.16-0.1-1.73-0.31c-0.57-0.21-1.08-0.52-1.53-0.93c-0.47-0.39-0.84-0.89-1.13-1.49
		c-0.28-0.6-0.42-1.32-0.42-2.17V331.99z M195.74,342.57c0,0.7,0.19,1.21,0.58,1.54c0.38,0.33,0.84,0.49,1.36,0.49
		c0.52,0,0.98-0.16,1.37-0.49c0.38-0.33,0.58-0.84,0.58-1.54v-10.58c0-0.69-0.19-1.21-0.58-1.53c-0.39-0.33-0.84-0.49-1.37-0.49
		c-0.52,0-0.98,0.16-1.36,0.49c-0.39,0.33-0.58,0.84-0.58,1.53V342.57z"/>
	<path fill="#FFFFFF" d="M214.31,327.26v15.53c0,0.66-0.12,1.26-0.35,1.82c-0.23,0.55-0.57,1.05-1,1.48
		c-0.43,0.43-0.93,0.77-1.49,1.01c-0.56,0.24-1.16,0.37-1.8,0.37c-0.64,0-1.23-0.12-1.79-0.37c-0.55-0.24-1.05-0.58-1.48-1.01
		c-0.43-0.43-0.77-0.93-1.01-1.48c-0.24-0.55-0.37-1.16-0.37-1.82v-15.53h2.87v15.25c0,0.72,0.17,1.24,0.51,1.58
		c0.34,0.34,0.76,0.51,1.27,0.51c0.51,0,0.93-0.17,1.27-0.51c0.34-0.34,0.51-0.86,0.51-1.58v-15.25H214.31z"/>
	<path fill="#FFFFFF" d="M217.02,347.3v-20.04h4.61c3.38,0,5.07,1.96,5.07,5.88c0,1.18-0.18,2.19-0.55,3.01
		c-0.36,0.83-1.01,1.49-1.93,2l3.1,9.14h-3.04l-2.67-8.55h-1.72v8.55H217.02z M219.89,329.96v6.25h1.63c0.51,0,0.91-0.07,1.21-0.21
		c0.3-0.14,0.53-0.34,0.7-0.6c0.15-0.26,0.25-0.59,0.31-0.97c0.06-0.39,0.08-0.83,0.08-1.34c0-0.51-0.03-0.95-0.08-1.34
		c-0.06-0.39-0.17-0.72-0.34-1c-0.36-0.52-1.03-0.79-2.03-0.79H219.89z"/>
	<path fill="#FFFFFF" d="M234.24,347.3v-20.04h2.87v9.14h0.06l4.19-9.14h2.87l-3.91,8.02l4.64,12.02h-3.04l-3.27-8.89l-1.55,2.9
		v5.99H234.24z"/>
	<path fill="#FFFFFF" d="M246.31,347.3v-20.04h2.87v20.04H246.31z"/>
	<path fill="#FFFFFF" d="M261.09,341.58v1.24c0,0.62-0.12,1.21-0.35,1.76c-0.24,0.55-0.56,1.05-0.97,1.48
		c-0.41,0.43-0.9,0.78-1.45,1.03c-0.55,0.25-1.15,0.38-1.79,0.38c-0.54,0-1.1-0.08-1.66-0.23c-0.56-0.15-1.07-0.41-1.52-0.79
		c-0.45-0.37-0.82-0.86-1.11-1.45c-0.29-0.59-0.44-1.35-0.44-2.27v-11.03c0-0.66,0.11-1.27,0.34-1.83c0.22-0.57,0.54-1.05,0.96-1.46
		c0.41-0.41,0.9-0.74,1.48-0.97c0.57-0.23,1.21-0.35,1.9-0.35c1.35,0,2.45,0.44,3.29,1.32c0.41,0.43,0.74,0.94,0.97,1.53
		c0.23,0.59,0.35,1.23,0.35,1.93V333h-2.87v-0.96c0-0.57-0.16-1.05-0.48-1.46c-0.32-0.41-0.75-0.62-1.3-0.62
		c-0.71,0-1.19,0.22-1.42,0.66c-0.24,0.44-0.35,1-0.35,1.67v10.24c0,0.58,0.13,1.07,0.38,1.46s0.71,0.59,1.36,0.59
		c0.19,0,0.39-0.03,0.61-0.1c0.21-0.07,0.42-0.17,0.6-0.32c0.17-0.15,0.31-0.36,0.42-0.62c0.11-0.26,0.17-0.59,0.17-0.99v-0.99
		H261.09z"/>
	<path fill="#FFFFFF" d="M263.42,347.3v-20.04h2.87v9.14h0.06l4.19-9.14h2.87l-3.91,8.02l4.64,12.02h-3.04l-3.27-8.89l-1.55,2.9
		v5.99H263.42z"/>
	<path fill="#FFFFFF" d="M275.3,340.94v-2.87h8.47v2.87H275.3z"/>
	<path fill="#FFFFFF" d="M285.06,347.3l4.48-20.04h2.39l4.48,20.04h-2.87l-0.84-4.3h-3.91l-0.84,4.3H285.06z M292.16,340.29
		l-1.41-7.26h-0.06l-1.41,7.26H292.16z"/>
	<path fill="#FFFFFF" d="M307.1,333.03h-2.87v-0.65c0-0.66-0.15-1.22-0.46-1.7c-0.31-0.48-0.83-0.72-1.56-0.72
		c-0.39,0-0.71,0.07-0.96,0.22c-0.24,0.15-0.44,0.34-0.59,0.56c-0.15,0.24-0.25,0.52-0.31,0.83c-0.06,0.31-0.09,0.63-0.09,0.97
		c0,0.39,0.02,0.72,0.04,0.99c0.03,0.26,0.1,0.5,0.21,0.7c0.11,0.21,0.28,0.39,0.49,0.54c0.22,0.15,0.51,0.3,0.89,0.45l2.19,0.87
		c0.64,0.24,1.15,0.53,1.55,0.86c0.39,0.33,0.7,0.71,0.93,1.14c0.21,0.45,0.35,0.96,0.42,1.54c0.07,0.57,0.11,1.22,0.11,1.95
		c0,0.85-0.09,1.63-0.25,2.35c-0.17,0.72-0.44,1.34-0.82,1.84c-0.39,0.52-0.91,0.94-1.55,1.24c-0.64,0.3-1.42,0.45-2.33,0.45
		c-0.7,0-1.34-0.12-1.94-0.37c-0.6-0.24-1.12-0.58-1.55-1.01c-0.43-0.43-0.77-0.93-1.03-1.51c-0.25-0.57-0.38-1.19-0.38-1.87v-1.07
		h2.87v0.9c0,0.52,0.16,1,0.46,1.42c0.31,0.42,0.83,0.63,1.56,0.63c0.49,0,0.87-0.07,1.14-0.21s0.48-0.34,0.63-0.6
		c0.15-0.26,0.24-0.58,0.27-0.94c0.03-0.37,0.04-0.78,0.04-1.22c0-0.53-0.02-0.96-0.06-1.29c-0.04-0.34-0.11-0.61-0.22-0.82
		c-0.13-0.21-0.31-0.37-0.52-0.51c-0.22-0.13-0.5-0.27-0.86-0.42l-2.06-0.84c-1.24-0.51-2.07-1.18-2.49-2.01
		c-0.42-0.83-0.63-1.88-0.63-3.14c0-0.75,0.1-1.46,0.31-2.14c0.21-0.67,0.52-1.25,0.93-1.74c0.39-0.49,0.9-0.88,1.51-1.17
		c0.61-0.29,1.34-0.44,2.18-0.44c0.71,0,1.36,0.13,1.96,0.39c0.59,0.27,1.1,0.61,1.53,1.04c0.86,0.9,1.3,1.93,1.3,3.09V333.03z"/>
	<path fill="#FFFFFF" d="M318.53,333.03h-2.87v-0.65c0-0.66-0.15-1.22-0.46-1.7c-0.31-0.48-0.83-0.72-1.56-0.72
		c-0.39,0-0.71,0.07-0.96,0.22c-0.24,0.15-0.44,0.34-0.59,0.56c-0.15,0.24-0.25,0.52-0.31,0.83c-0.06,0.31-0.09,0.63-0.09,0.97
		c0,0.39,0.01,0.72,0.04,0.99c0.03,0.26,0.1,0.5,0.21,0.7c0.11,0.21,0.28,0.39,0.49,0.54c0.22,0.15,0.51,0.3,0.89,0.45l2.19,0.87
		c0.64,0.24,1.15,0.53,1.55,0.86c0.39,0.33,0.7,0.71,0.93,1.14c0.21,0.45,0.35,0.96,0.42,1.54c0.07,0.57,0.11,1.22,0.11,1.95
		c0,0.85-0.09,1.63-0.25,2.35c-0.17,0.72-0.44,1.34-0.82,1.84c-0.39,0.52-0.91,0.94-1.55,1.24c-0.64,0.3-1.42,0.45-2.33,0.45
		c-0.7,0-1.34-0.12-1.94-0.37c-0.6-0.24-1.12-0.58-1.55-1.01c-0.43-0.43-0.77-0.93-1.03-1.51c-0.25-0.57-0.38-1.19-0.38-1.87v-1.07
		h2.87v0.9c0,0.52,0.16,1,0.46,1.42c0.31,0.42,0.83,0.63,1.56,0.63c0.49,0,0.87-0.07,1.14-0.21c0.27-0.14,0.48-0.34,0.63-0.6
		c0.15-0.26,0.24-0.58,0.27-0.94c0.03-0.37,0.04-0.78,0.04-1.22c0-0.53-0.02-0.96-0.06-1.29c-0.04-0.34-0.11-0.61-0.22-0.82
		c-0.13-0.21-0.31-0.37-0.52-0.51c-0.22-0.13-0.5-0.27-0.86-0.42l-2.06-0.84c-1.24-0.51-2.07-1.18-2.49-2.01
		c-0.42-0.83-0.63-1.88-0.63-3.14c0-0.75,0.1-1.46,0.31-2.14c0.21-0.67,0.52-1.25,0.93-1.74c0.39-0.49,0.9-0.88,1.51-1.17
		c0.61-0.29,1.34-0.44,2.18-0.44c0.71,0,1.36,0.13,1.96,0.39c0.59,0.27,1.1,0.61,1.53,1.04c0.86,0.9,1.3,1.93,1.3,3.09V333.03z"/>
	<path fill="#FFFFFF" d="M325.9,347.3v-20.04h2.87v17.17h5.69v2.87H325.9z"/>
	<path fill="#FFFFFF" d="M336.14,331.99c0-0.81,0.14-1.52,0.42-2.14c0.28-0.62,0.66-1.13,1.13-1.55c0.45-0.39,0.96-0.69,1.53-0.9
		c0.57-0.21,1.15-0.31,1.73-0.31c0.58,0,1.16,0.1,1.73,0.31c0.57,0.21,1.09,0.51,1.56,0.9c0.45,0.41,0.82,0.93,1.1,1.55
		c0.28,0.62,0.42,1.33,0.42,2.14v10.58c0,0.85-0.14,1.57-0.42,2.17c-0.28,0.6-0.65,1.1-1.1,1.49c-0.47,0.41-0.99,0.72-1.56,0.93
		c-0.57,0.21-1.15,0.31-1.73,0.31c-0.58,0-1.16-0.1-1.73-0.31c-0.57-0.21-1.08-0.52-1.53-0.93c-0.47-0.39-0.84-0.89-1.13-1.49
		c-0.28-0.6-0.42-1.32-0.42-2.17V331.99z M339.01,342.57c0,0.7,0.19,1.21,0.58,1.54c0.38,0.33,0.84,0.49,1.36,0.49
		s0.98-0.16,1.37-0.49c0.38-0.33,0.58-0.84,0.58-1.54v-10.58c0-0.69-0.19-1.21-0.58-1.53c-0.39-0.33-0.84-0.49-1.37-0.49
		s-0.98,0.16-1.36,0.49c-0.39,0.33-0.58,0.84-0.58,1.53V342.57z"/>
	<path fill="#FFFFFF" d="M348.13,331.99c0-0.81,0.14-1.52,0.42-2.14c0.28-0.62,0.66-1.13,1.13-1.55c0.45-0.39,0.96-0.69,1.53-0.9
		c0.57-0.21,1.15-0.31,1.73-0.31c0.58,0,1.16,0.1,1.73,0.31c0.57,0.21,1.09,0.51,1.56,0.9c0.45,0.41,0.82,0.93,1.1,1.55
		c0.28,0.62,0.42,1.33,0.42,2.14V333h-2.87v-1.01c0-0.69-0.19-1.21-0.58-1.53c-0.39-0.33-0.84-0.49-1.37-0.49s-0.98,0.16-1.36,0.49
		c-0.39,0.33-0.58,0.84-0.58,1.53v10.58c0,0.7,0.19,1.21,0.58,1.54c0.38,0.33,0.84,0.49,1.36,0.49s0.98-0.16,1.37-0.49
		c0.38-0.33,0.58-0.84,0.58-1.54v-3.77h-2.28v-2.53h5.15v6.3c0,0.85-0.14,1.57-0.42,2.17c-0.28,0.6-0.65,1.1-1.1,1.49
		c-0.47,0.41-0.99,0.72-1.56,0.93c-0.57,0.21-1.15,0.31-1.73,0.31c-0.58,0-1.16-0.1-1.73-0.31c-0.57-0.21-1.08-0.52-1.53-0.93
		c-0.47-0.39-0.84-0.89-1.13-1.49c-0.28-0.6-0.42-1.32-0.42-2.17V331.99z"/>
	<path fill="#FFFFFF" d="M360.12,331.99c0-0.81,0.14-1.52,0.42-2.14c0.28-0.62,0.66-1.13,1.13-1.55c0.45-0.39,0.96-0.69,1.53-0.9
		c0.57-0.21,1.15-0.31,1.73-0.31c0.58,0,1.16,0.1,1.73,0.31c0.57,0.21,1.09,0.51,1.56,0.9c0.45,0.41,0.82,0.93,1.1,1.55
		c0.28,0.62,0.42,1.33,0.42,2.14v10.58c0,0.85-0.14,1.57-0.42,2.17c-0.28,0.6-0.65,1.1-1.1,1.49c-0.47,0.41-0.99,0.72-1.56,0.93
		c-0.57,0.21-1.15,0.31-1.73,0.31c-0.58,0-1.16-0.1-1.73-0.31c-0.57-0.21-1.08-0.52-1.53-0.93c-0.47-0.39-0.84-0.89-1.13-1.49
		c-0.28-0.6-0.42-1.32-0.42-2.17V331.99z M362.99,342.57c0,0.7,0.19,1.21,0.58,1.54c0.38,0.33,0.84,0.49,1.36,0.49
		c0.52,0,0.98-0.16,1.37-0.49c0.38-0.33,0.58-0.84,0.58-1.54v-10.58c0-0.69-0.19-1.21-0.58-1.53c-0.39-0.33-0.84-0.49-1.37-0.49
		c-0.52,0-0.98,0.16-1.36,0.49c-0.39,0.33-0.58,0.84-0.58,1.53V342.57z"/>
	<path fill="#FFFFFF" d="M377.51,347.3v-20.04h2.87v8.58h3.55v-8.58h2.87v20.04h-2.87v-8.92h-3.55v8.92H377.51z"/>
	<path fill="#FFFFFF" d="M389.5,347.3v-20.04h8.55v2.7h-5.69v5.88h4.95v2.7h-4.95v5.88h5.69v2.87H389.5z"/>
	<path fill="#FFFFFF" d="M399.91,347.3v-20.04h4.61c3.38,0,5.07,1.96,5.07,5.88c0,1.18-0.18,2.19-0.55,3.01
		c-0.36,0.83-1.01,1.49-1.93,2l3.1,9.14h-3.04l-2.67-8.55h-1.72v8.55H399.91z M402.78,329.96v6.25h1.63c0.51,0,0.91-0.07,1.21-0.21
		c0.3-0.14,0.53-0.34,0.7-0.6c0.15-0.26,0.25-0.59,0.31-0.97c0.06-0.39,0.08-0.83,0.08-1.34c0-0.51-0.03-0.95-0.08-1.34
		c-0.06-0.39-0.17-0.72-0.34-1c-0.36-0.52-1.03-0.79-2.03-0.79H402.78z"/>
	<path fill="#FFFFFF" d="M411.9,347.3v-20.04h8.55v2.7h-5.69v5.88h4.95v2.7h-4.95v5.88h5.69v2.87H411.9z"/>
</g>
</svg>
